<svg width="20" height="15" viewBox="0 0 20 15" fill="none" xmlns="http://www.w3.org/2000/svg">
<g clip-path="url(#clip0_205_380)">
<path fill-rule="evenodd" clip-rule="evenodd" d="M0.39388 5.72742L8.68978 0L17.028 5.72742H0.39388ZM19.3132 13.5404C19.8389 13.8257 19.8649 14.2758 20 14.8082H12.2803C12.4154 14.2758 12.4414 13.8257 12.9671 13.5404C13.8411 13.065 14.7396 13.5436 15.1563 12.3566C15.0244 12.2044 14.9105 12.0333 14.8014 11.8653L14.4434 11.3106C14.3132 11.1204 14.2448 10.9461 14.2399 10.8035C14.2383 10.7369 14.2497 10.6751 14.2757 10.6228C14.3018 10.5674 14.3441 10.5198 14.3994 10.4834C14.4255 10.4659 14.4548 10.4517 14.4857 10.4406C14.4629 10.1395 14.4531 9.7607 14.4694 9.44374C14.4775 9.36767 14.4922 9.29319 14.5133 9.21712C14.6045 8.89857 14.834 8.64184 15.1188 8.46593C15.2751 8.36926 15.4476 8.29477 15.6266 8.24564C15.7406 8.21395 15.5306 7.86054 15.6478 7.84786C16.2158 7.79081 17.137 8.29636 17.5342 8.71474C17.7327 8.92393 17.8581 9.20285 17.8857 9.57052L17.863 10.4754C17.9622 10.5055 18.0257 10.5658 18.0518 10.6656C18.0811 10.775 18.0485 10.9303 17.9525 11.1426C17.9508 11.1458 17.9492 11.1506 17.946 11.1537L17.5374 11.8082C17.3877 12.0491 17.2347 12.29 17.0361 12.4802C17.7734 13.5166 18.3773 13.0317 19.3132 13.5404ZM0 14.0872H1.28418V13.2155H1.47135V12.8003H2.0166V7.80824H0.901693V6.61331H16.4762V7.18859C16.11 7.0523 15.7324 6.97781 15.4004 7.01109C14.904 7.06022 14.7266 7.30745 14.7135 7.66086C14.6549 7.69097 14.5964 7.72583 14.5378 7.7607C14.3148 7.89857 14.1146 8.06973 13.9551 8.26783C13.5286 8.79715 13.5124 9.25674 13.5221 9.88906L13.527 10.0903C13.4147 10.2282 13.3464 10.374 13.3138 10.5246V7.80824H11.5983V12.7987H12.1436V13.1426C12.0996 13.1727 12.0557 13.206 12.0117 13.2409C11.8994 13.3312 11.7985 13.4311 11.7122 13.5436C11.6243 13.6577 11.5332 13.8368 11.4551 14.0301C11.3916 14.187 11.3314 14.3677 11.2874 14.5277C11.263 14.5975 11.25 14.6735 11.25 14.7512C11.25 14.8384 11.2663 14.9239 11.2972 15H0V14.0872ZM4.60938 13.2155H5.23763V12.8003H5.78288V7.80824H4.06576V12.7987H4.611V13.2155H4.60938ZM8.37565 13.2155H9.00553V12.8003H9.54915V7.80824H7.83203V12.7987H8.37728V13.2155H8.37565ZM12.7718 12.8479V12.7987H12.9411C12.8841 12.8146 12.8271 12.8304 12.7718 12.8479ZM13.3171 12.7036V10.9921C13.335 11.0903 13.3626 11.1886 13.3984 11.2868C13.4489 11.4136 13.5205 11.5452 13.6133 11.683L13.9876 12.2631C14.0332 12.3344 14.0804 12.4057 14.1325 12.4818C13.9388 12.5563 13.6572 12.6244 13.387 12.6878L13.3171 12.7036ZM5.89681 4.28368L8.7028 2.187L11.5251 4.28368H5.89681Z" fill="white"/>
</g>
<defs>
<clipPath id="clip0_205_380">
<rect width="20" height="15" fill="white"/>
</clipPath>
</defs>
</svg>
