<svg width="30" height="24" viewBox="0 0 30 24" fill="none" xmlns="http://www.w3.org/2000/svg">
<path fill-rule="evenodd" clip-rule="evenodd" d="M20.3027 4.63497L20.2979 4.65186C19.0259 4.41782 17.1899 4.29476 15.2539 4.31648C13.2959 4.3382 11.2256 4.50709 9.52148 4.85212L9.51904 4.84488C8.03223 -2.06776 22.2681 -1.08093 20.3027 4.63497ZM6.90186 22.9046C5.78857 23.7394 4.54102 24.4005 2.70752 23.7129C1.51855 23.2665 0.544434 22.2363 0 20.9382C4.73633 23.059 6.43066 16.9716 0.822754 16.7882C2.53418 14.7518 5.05859 14.7687 7.09961 16.2622C8.06396 16.9667 8.60596 17.3214 9.1626 17.4758C9.46533 17.5651 9.77051 17.582 10.1562 17.582C11.46 17.5868 18.2886 17.4396 19.6704 17.4107C22.2729 17.36 23.5889 13.4055 27.2925 14.8C28.4814 15.2464 29.4556 16.2767 30 17.5747C25.2637 15.4539 23.5693 21.5414 29.1772 21.7247C27.4658 23.7611 24.9414 23.7442 22.9004 22.2507C22.0068 21.5945 21.4429 20.8224 19.6777 20.8706C18.4546 20.9213 11.6382 21.0009 10.4126 21.0829C9.92432 21.1119 9.60205 21.1602 9.29443 21.2784C8.73779 21.4883 8.23486 21.9154 6.91895 22.907L6.90186 22.9046ZM12.0337 12.1219C11.1694 12.7226 10.2637 12.9446 9.38232 13.1063L10.4248 16.0306C12.5513 16.0064 17.4927 15.9027 19.5166 15.8593L20.0146 15.8496L20.7837 13.1304C19.9976 13.0508 19.2627 12.9905 18.689 12.6913C18.4302 12.5296 18.2007 12.3076 17.9907 12.0253L17.9541 11.4414C18.1592 11.275 18.3545 11.0819 18.5229 10.8648C18.9014 10.3967 19.0479 9.91415 19.2285 9.30371C19.2651 9.17342 19.3018 9.04555 19.3457 8.91525C19.7021 8.87906 20.0146 8.48337 20.2051 7.99357C20.3076 7.72092 20.3882 7.40967 20.4077 7.13703C20.437 6.84991 20.4077 6.58209 20.3052 6.40354C20.2246 6.25877 20.1001 6.16709 19.9341 6.15261C19.9219 6.01026 19.9878 5.70383 20.0757 5.38052C18.8721 5.16578 17.1216 5.05479 15.2612 5.07651C13.3496 5.09822 11.333 5.26229 9.67773 5.59767L9.83887 6.36011C9.71436 6.56279 9.68506 6.87886 9.72168 7.21665C9.7583 7.5472 9.86084 7.89223 10.0049 8.18177C10.1953 8.54851 10.4639 8.80909 10.7764 8.80909C10.8057 8.89595 10.8423 8.99005 10.8716 9.08174C11.1255 9.82246 11.3159 10.3846 11.7749 10.9179C11.9067 11.0771 12.0508 11.2195 12.2046 11.3498L12.168 12.0036C12.124 12.0422 12.0801 12.0832 12.0337 12.1219ZM7.91992 13.3741C7.24609 13.5261 6.60645 13.7505 6.03027 14.2113C6.3501 14.3826 6.6626 14.5805 6.96533 14.8025C7.46582 15.1692 7.85644 15.4418 8.18604 15.6421C8.37891 15.7579 8.54248 15.8424 8.69385 15.9027C8.51074 14.8555 8.0542 13.8687 7.91992 13.3741ZM23.4863 13.8325C23.103 13.6105 22.7026 13.4634 22.2974 13.362C22.2095 13.7167 22.019 14.3537 21.8677 15.063C22.0752 14.911 22.2852 14.747 22.4976 14.5805C22.8223 14.3271 23.147 14.0714 23.4863 13.8325ZM13.4619 2.49965H16.5381C16.6113 2.49965 16.6699 2.55756 16.6699 2.62994V3.33206C16.6699 3.40445 16.6113 3.46235 16.5381 3.46235H13.4619C13.3887 3.46235 13.3301 3.40445 13.3301 3.33206V2.62994C13.3301 2.55756 13.3887 2.49965 13.4619 2.49965ZM17.4902 11.6707C16.6675 12.2111 16.167 12.5103 15.1025 12.4838C14.0674 12.4693 13.5278 12.1218 12.7002 11.6055C12.6416 15.0196 17.5757 15.2223 17.4902 11.6707ZM18.7231 9.19272C18.7671 9.04072 18.8184 8.88389 18.877 8.69569C18.8989 8.61607 18.9795 8.55816 19.0601 8.57264C19.2993 8.61607 19.541 8.27104 19.707 7.85363C19.8022 7.6027 19.8755 7.32764 19.8975 7.08395C19.9194 6.85473 19.8975 6.65206 19.8315 6.52901C19.7656 6.41078 19.5874 6.47834 19.4531 6.36252C18.7646 8.1697 12.749 8.98764 10.2881 6.50005C10.2002 6.63758 10.1855 6.88127 10.2148 7.15392C10.2515 7.44104 10.3394 7.75953 10.4688 8.01046C10.6226 8.30482 10.8179 8.50749 11.0156 8.45682C11.0962 8.43511 11.1841 8.47854 11.2134 8.55816C11.272 8.71741 11.3086 8.83805 11.3525 8.9611C12.6245 12.6647 17.4731 12.9543 18.7231 9.19272Z" fill="#A7A7A7"/>
</svg>
