<svg width="26" height="29" viewBox="0 0 26 29" fill="none" xmlns="http://www.w3.org/2000/svg">
<path fill-rule="evenodd" clip-rule="evenodd" d="M18.8652 3.49992L9.58548 9.50618H12.2245L19.0757 5.0717L20.0816 4.42033L22.9821 9.50618H24.6705C25.0384 9.50618 25.3707 9.66667 25.6122 9.92155C25.8538 10.1788 26.0044 10.5328 26.0044 10.9222V27.5816C26.0044 27.971 25.8538 28.325 25.6145 28.5799V28.5823C25.3729 28.8395 25.0406 28.9976 24.6727 28.9976H1.3339C0.966082 28.9976 0.633714 28.8395 0.392194 28.5823V28.5799C0.150673 28.325 0 27.971 0 27.584V10.9222C0 10.5328 0.150673 10.1764 0.389978 9.92155C0.631498 9.66431 0.963866 9.50618 1.33169 9.50618H1.88563L16.2927 0.181722C16.4766 0.0637207 16.6848 0 16.8998 0C16.9928 0 17.0859 0.0118001 17.1768 0.0354004C17.4781 0.113281 17.7396 0.316243 17.8991 0.599447L19.3682 3.17424L18.8652 3.49992ZM1.3051 10.7664C1.25413 10.8254 1.21203 10.8915 1.18101 10.9647V13.0155H24.819V10.9222C24.819 10.8774 24.8035 10.8372 24.7769 10.8113H24.7747C24.7481 10.783 24.7104 10.7641 24.6683 10.7641H1.33169C1.32282 10.7641 1.31396 10.7641 1.3051 10.7664ZM3.54082 19.9918H7.76189V21.6745H3.54082V19.9918ZM3.54082 23.9755H15.3399V25.493H3.54082V23.9755ZM19.1023 19.9918H23.3233V21.6745H19.1023V19.9918ZM13.9151 19.9918H18.1362V21.6745H13.9151V19.9918ZM8.72797 19.9918H12.949V21.6745H8.72797V19.9918ZM24.819 17.7332H1.18101V27.5816C1.18101 27.6265 1.19652 27.6666 1.22533 27.6949H1.22754C1.25635 27.7256 1.29402 27.7421 1.33169 27.7421H24.6705C24.7104 27.7421 24.7481 27.7232 24.7769 27.6949C24.8057 27.6642 24.8212 27.6241 24.8212 27.5816V17.7332H24.819Z" fill="#A7A7A7"/>
</svg>
