<svg width="18" height="18" viewBox="0 0 18 18" fill="none" xmlns="http://www.w3.org/2000/svg">
<path d="M0 9.00007L0.00263668 8.99993C0.00263668 6.51337 1.00926 4.26354 2.63638 2.63626C4.2635 1.00927 6.51332 0.0026367 8.99985 0.0026367V0H9L9.00015 0.0026367C11.4865 0.0026367 13.7366 1.00927 15.3638 2.6364C16.9909 4.26354 17.9975 6.51337 17.9975 8.99978H18.0001V9.00007H17.9975C17.9975 11.4868 16.9907 13.7366 15.3638 15.3637C13.7365 16.9907 11.4868 17.9974 9.00029 17.9974V18H9V17.9974C6.51347 17.9974 4.2635 16.9907 2.63638 15.3636C1.00926 13.7365 0.00263668 11.4868 0.00263668 9.00022L0 9.00007ZM6.22255 7.4973C5.93516 7.21767 5.47535 7.22411 5.19586 7.51151C4.91638 7.79891 4.92267 8.25872 5.21007 8.53821L8.50899 11.7373L9.01523 11.2168L8.50841 11.7395C8.79712 12.0194 9.25795 12.0122 9.53803 11.7236C9.54608 11.7151 9.554 11.7068 9.56147 11.698L12.7923 8.53821C13.0798 8.25872 13.0861 7.79906 12.8066 7.51151C12.5271 7.22396 12.0673 7.21767 11.7798 7.4973L9.01304 10.2033L6.22255 7.4973Z" fill="white"/>
</svg>
