<svg width="26" height="29" viewBox="0 0 26 29" fill="none" xmlns="http://www.w3.org/2000/svg">
<path d="M10.438 23.6267V19.8388C10.438 18.8789 11.2185 18.0991 12.1853 18.093H15.7353C16.7064 18.093 17.4936 18.8746 17.4936 19.8388V23.6158C17.4936 24.4483 18.1702 25.1249 19.0087 25.1309H21.4307C22.5618 25.1339 23.6476 24.6898 24.4485 23.8967C25.2494 23.1037 25.6995 22.0268 25.6994 20.9038V10.1438C25.6994 9.2367 25.2944 8.37623 24.5935 7.79423L16.3656 1.26139C14.9274 0.118725 12.8732 0.155638 11.4775 1.34923L3.42655 7.79423C2.69256 8.35907 2.25386 9.2221 2.23218 10.1438V20.8928C2.23218 23.2335 4.14338 25.1309 6.50096 25.1309H8.8676C9.27134 25.1339 9.65955 24.9767 9.94608 24.6943C10.2326 24.4119 10.3938 24.0276 10.3937 23.6267H10.438Z" fill="#749000"/>
</svg>
