<svg width="40" height="22" viewBox="0 0 40 22" fill="none" xmlns="http://www.w3.org/2000/svg">
<g clip-path="url(#clip0_205_566)">
<path fill-rule="evenodd" clip-rule="evenodd" d="M19.0137 19.9346C16.8316 19.7589 14.7787 18.8332 13.2063 17.316C11.6338 15.7989 10.6397 13.7845 10.3939 11.6177C9.89909 11.7798 9.39779 11.9711 8.88997 12.1851L9.71029 16.2284L0 9.72734L6.41927 0L7.25586 4.12115C9.08105 3.81726 10.948 3.86791 12.7539 4.2703C14.2726 2.5813 16.3541 1.4974 18.6133 1.21916C18.9997 1.16917 19.389 1.14534 19.7786 1.14783C20.5727 1.15942 21.3631 1.25837 22.1354 1.44289C24.1573 1.95904 25.9505 3.12812 27.2345 4.76728C28.5184 6.40644 29.2208 8.42324 29.2318 10.5023C29.8721 10.3062 30.5013 10.0757 31.1165 9.81164L30.2897 5.77156L40 12.2564L33.5807 21.9838L32.7441 17.8594C30.5652 18.2379 28.3272 18.0956 26.2142 17.4444C25.0682 18.5085 23.6743 19.2718 22.1582 19.6654C21.1309 19.9204 20.0695 20.0112 19.0137 19.9346ZM20.6934 12.678C20.6984 12.5001 20.6651 12.3232 20.5957 12.1592C20.5267 12.0175 20.4211 11.8966 20.2897 11.809C20.1138 11.6925 19.9262 11.5947 19.7298 11.5172C19.2307 11.3056 18.7429 11.0686 18.2682 10.8071C17.8772 10.5914 17.5427 10.287 17.2917 9.91865C17.0318 9.50233 16.9047 9.01735 16.9271 8.52764C16.9171 8.05147 17.0522 7.58347 17.3145 7.18526C17.5796 6.79646 17.9482 6.48884 18.3789 6.29683C18.7434 6.13461 19.1332 6.03591 19.5312 6.00501V4.99985H20.5632V6.03095C20.9033 6.07823 21.2333 6.18122 21.5397 6.33574C21.9858 6.5604 22.3576 6.90822 22.6107 7.33766C22.8791 7.81539 23.0129 8.3565 22.998 8.90376H20.7487C20.7893 8.57642 20.7031 8.24598 20.5078 7.97966C20.4311 7.89843 20.3382 7.83399 20.235 7.79045C20.1319 7.74691 20.0208 7.72522 19.9089 7.72675C19.7563 7.72012 19.6054 7.75969 19.4759 7.84024C19.3651 7.91448 19.2798 8.02089 19.2318 8.14503C19.1785 8.27461 19.1519 8.41355 19.1536 8.55358C19.15 8.6993 19.1812 8.84379 19.2448 8.97509C19.3178 9.10499 19.4204 9.21603 19.5443 9.29934C19.7287 9.42586 19.9249 9.53444 20.1302 9.62358C20.6192 9.84558 21.0942 10.0968 21.5527 10.3758C21.9515 10.5991 22.2943 10.9095 22.5553 11.2837C22.8161 11.6986 22.9443 12.1825 22.9232 12.6715C22.9448 13.1476 22.8182 13.6187 22.5606 14.0204C22.303 14.422 21.9271 14.7346 21.4844 14.9153C21.1456 15.0598 20.7866 15.1516 20.4199 15.1876V16.1604H19.3815V15.1876C19.1618 15.1607 18.9442 15.1185 18.7305 15.0612C18.3447 14.9578 17.9816 14.7841 17.6595 14.5489C17.3279 14.3014 17.0629 13.9762 16.888 13.6021C16.6791 13.1469 16.5788 12.6497 16.5951 12.1494H18.8216C18.8155 12.3638 18.8463 12.5777 18.9128 12.7817C18.9612 12.9332 19.0436 13.0718 19.1536 13.187C19.2508 13.2859 19.3702 13.3604 19.502 13.4043C19.6357 13.4515 19.7768 13.4746 19.9186 13.4724C20.0775 13.4794 20.2353 13.4424 20.3743 13.3654C20.4863 13.2969 20.5748 13.1963 20.6283 13.0768C20.6824 12.9531 20.7101 12.8194 20.7096 12.6845L20.6934 12.678ZM20.5729 18.3814L20.3841 18.3976C20.179 18.3976 19.974 18.4203 19.7656 18.4203C17.9921 18.4244 16.2691 17.8325 14.8751 16.7403C13.4812 15.6481 12.4978 14.1195 12.0841 12.4017C11.6704 10.6839 11.8504 8.87724 12.5952 7.27399C13.3399 5.67073 14.6058 4.36456 16.1882 3.56669L16.3509 3.48563C17.3866 2.98982 18.5187 2.72561 19.6677 2.71153C20.8167 2.69745 21.9549 2.93383 23.0026 3.4041C24.0502 3.87437 24.982 4.56717 25.7325 5.43393C26.483 6.30069 27.0341 7.32045 27.3473 8.42174C27.6604 9.52304 27.728 10.6792 27.5452 11.8093C27.3625 12.9393 26.9339 14.0159 26.2894 14.9635C25.6449 15.9112 24.8002 16.707 23.8144 17.2951C22.8286 17.8833 21.7256 18.2497 20.5827 18.3685L20.5729 18.3814Z" fill="#A7A7A7"/>
</g>
<defs>
<clipPath id="clip0_205_566">
<rect width="40" height="22" fill="white"/>
</clipPath>
</defs>
</svg>
