<svg width="18" height="20" viewBox="0 0 18 20" fill="none" xmlns="http://www.w3.org/2000/svg">
<g clip-path="url(#clip0_205_374)">
<path fill-rule="evenodd" clip-rule="evenodd" d="M13.399 9.91001H15.9623V9.40012C15.8157 8.84221 15.5825 8.4639 15.2799 8.23355C14.9784 8.00398 14.5861 7.9056 14.1262 7.90911L3.35924 7.91145C3.10063 7.91145 2.89101 7.69594 2.89101 7.42968C2.89101 7.1638 3.10063 6.94829 3.35924 6.94829L4.85924 6.94868C4.69937 6.69256 4.56456 6.41888 4.45709 6.13075C4.39747 5.96795 4.34582 5.80319 4.30329 5.63414H2.53405C2.09544 5.63414 1.69595 5.8192 1.4062 6.11709C1.11684 6.41459 0.936835 6.82531 0.936835 7.27663V17.3947C0.936835 17.8453 1.11722 18.256 1.40696 18.5535C1.69557 18.8526 2.09544 19.0372 2.53405 19.0372H14.3647C14.8029 19.0372 15.2024 18.8518 15.4925 18.5543C15.7819 18.256 15.9623 17.8449 15.9623 17.3947V15.9514H13.399C12.6072 15.9514 11.8876 15.6183 11.3673 15.0831L11.3184 15.0284C10.8262 14.4959 10.5228 13.7787 10.5228 12.9943V12.867C10.5228 12.0569 10.8463 11.3183 11.3673 10.7814L11.3723 10.7763C11.8944 10.2419 12.6118 9.91001 13.399 9.91001ZM16.8991 9.93734C17.1691 9.99278 17.411 10.1302 17.5986 10.3231C17.8458 10.5772 18 10.9294 18 11.3171V14.4842C18 14.8851 17.8394 15.2517 17.5796 15.5192C17.3931 15.7132 17.1573 15.8494 16.8991 15.9123V17.3947C16.8991 18.1088 16.6128 18.76 16.1537 19.232L16.1518 19.234C15.6927 19.706 15.0592 20.0004 14.3647 20.0004H2.53405C1.83987 20.0004 1.2057 19.7064 0.745443 19.2336C0.28557 18.7628 0 18.1115 0 17.3947V7.27663C0 6.55943 0.28519 5.90782 0.743924 5.43581C1.20266 4.96418 1.83646 4.67097 2.53405 4.67097H4.17C4.1681 4.61944 4.16734 4.56751 4.16734 4.5152C4.16734 3.26976 4.65949 2.14028 5.45848 1.31727C7.16924 -0.436488 9.9657 -0.440392 11.6757 1.31727L11.7178 1.36452C12.4891 2.18049 12.9642 3.29201 12.9642 4.5152C12.9642 4.56751 12.963 4.61944 12.9615 4.67097H14.3647C15.06 4.67097 15.6934 4.96496 16.1529 5.43737C16.6132 5.9086 16.8991 6.56099 16.8991 7.27663V9.93734ZM12.2719 6.94946H14.1137C14.7748 6.94321 15.3573 7.09782 15.8362 7.46286C15.8791 7.49566 15.9213 7.53001 15.9623 7.56593V7.27663C15.9623 6.82687 15.7819 6.41576 15.4918 6.11748C15.2035 5.81881 14.8044 5.63414 14.3647 5.63414H12.8278C12.7861 5.80358 12.7344 5.96951 12.6744 6.13075C12.5673 6.41966 12.4322 6.69296 12.2719 6.94946ZM7.84899 2.5264C7.84747 2.33861 7.83038 2.20392 8.05747 2.20743L8.98633 2.21641C9.22291 2.21524 9.28595 2.29254 9.28329 2.52055V3.42476H10.1571C10.3397 3.42359 10.4704 3.40602 10.467 3.6391L10.4582 4.59406C10.4594 4.83768 10.3846 4.90249 10.1624 4.89976H9.28329V5.80319C9.28595 6.03159 9.22291 6.10889 8.98633 6.10733L8.05747 6.11631C7.83038 6.11982 7.84747 5.98552 7.84899 5.79772V4.89976H6.96949C6.74734 4.90249 6.67215 4.83729 6.67367 4.59406L6.66494 3.6391C6.66114 3.40602 6.79215 3.42359 6.97481 3.42476H7.84899V2.5264ZM8.56595 0.759756C10.5832 0.759756 12.2184 2.4409 12.2184 4.5152C12.2184 5.47953 11.8644 6.35915 11.283 7.02403H5.8481C5.26671 6.35915 4.91316 5.47953 4.91316 4.5152C4.91316 2.4409 6.54835 0.759756 8.56595 0.759756ZM13.6363 11.7231C13.9451 11.7231 14.2253 11.8523 14.4281 12.0612C14.6324 12.2713 14.7581 12.5594 14.7581 12.8768C14.7581 13.1938 14.6324 13.482 14.4296 13.6908C14.2253 13.9009 13.9451 14.0301 13.6363 14.0301C13.328 14.0301 13.0481 13.9009 12.8446 13.6924L12.8423 13.69C12.6395 13.4808 12.5146 13.193 12.5146 12.8768C12.5146 12.5598 12.6403 12.2717 12.843 12.0628L12.8453 12.0604C13.0485 11.8523 13.3284 11.7231 13.6363 11.7231Z" fill="white"/>
</g>
<defs>
<clipPath id="clip0_205_374">
<rect width="18" height="20" fill="white"/>
</clipPath>
</defs>
</svg>
